<svg width="73" height="14" viewBox="0 0 73 14" fill="none" xmlns="http://www.w3.org/2000/svg">
<path d="M4.32112 13.3331C4.0437 13.3331 3.72583 13.3216 3.3675 13.2984C3.02073 13.2869 2.6624 13.2638 2.29251 13.2291C1.93418 13.1944 1.58741 13.1597 1.25219 13.1251C0.928542 13.0904 0.651125 13.0441 0.419945 12.9863V11.6339C0.720479 11.6571 1.07881 11.6802 1.49493 11.7033C1.92262 11.7264 2.37342 11.7438 2.84734 11.7553C3.33282 11.7669 3.80096 11.7727 4.25176 11.7727C4.7488 11.7727 5.18804 11.7264 5.56949 11.6339C5.9625 11.5415 6.26881 11.3681 6.48843 11.1138C6.71961 10.8595 6.8352 10.5012 6.8352 10.0388V9.29324C6.8352 8.77308 6.69072 8.3743 6.40174 8.09688C6.12432 7.81947 5.69664 7.68076 5.11869 7.68076H3.8183C2.70863 7.68076 1.84748 7.43802 1.23486 6.95254C0.633787 6.46706 0.333252 5.63481 0.333252 4.45579V3.76225C0.333252 2.53699 0.662684 1.66429 1.32155 1.14413C1.99197 0.612414 2.93981 0.346557 4.16507 0.346557C4.56963 0.346557 5.0031 0.369675 5.46546 0.415911C5.92782 0.450588 6.37862 0.496824 6.81786 0.55462C7.25711 0.612415 7.62122 0.67021 7.91019 0.728005V2.08041C7.39004 2.04573 6.80631 2.01106 6.159 1.97638C5.52325 1.93014 4.92218 1.90702 4.35579 1.90702C3.87031 1.90702 3.44841 1.96482 3.09008 2.08041C2.74331 2.18444 2.47167 2.37517 2.27517 2.65258C2.09022 2.93 1.99775 3.32301 1.99775 3.8316V4.35176C1.99775 4.97595 2.16536 5.40941 2.50057 5.65215C2.83578 5.89489 3.30392 6.01626 3.90499 6.01626H5.30941C6.03763 6.01626 6.63292 6.14919 7.09528 6.41504C7.5692 6.6809 7.92175 7.04501 8.15293 7.50737C8.38411 7.96973 8.4997 8.49567 8.4997 9.08518V9.98678C8.4997 10.8884 8.31476 11.5819 7.94487 12.0674C7.57498 12.5529 7.07794 12.8881 6.45376 13.073C5.82957 13.2464 5.11869 13.3331 4.32112 13.3331Z" fill="#1958B8"/>
<path d="M13.4244 13.3331C12.8811 13.3331 12.3783 13.2638 11.9159 13.1251C11.4651 12.9748 11.0663 12.7263 10.7196 12.3795C10.3844 12.0327 10.1243 11.553 9.93934 10.9404C9.7544 10.3278 9.66193 9.55332 9.66193 8.61704C9.66193 7.65764 9.74862 6.87163 9.922 6.259C10.0954 5.63481 10.3439 5.14933 10.6676 4.80256C11.0028 4.44423 11.4073 4.19571 11.8813 4.057C12.3552 3.9183 12.8869 3.84894 13.4764 3.84894C13.9619 3.84894 14.4705 3.87206 15.0022 3.9183C15.5455 3.96453 16.0714 4.03966 16.58 4.1437V5.16667H13.9619C13.3955 5.16667 12.9216 5.25914 12.5401 5.44409C12.1587 5.61747 11.8755 5.95846 11.6905 6.46706C11.5056 6.9641 11.4131 7.68654 11.4131 8.63438C11.4131 9.54754 11.5114 10.2526 11.7079 10.7497C11.9044 11.2352 12.1876 11.5646 12.5575 11.738C12.9389 11.9114 13.4128 11.9981 13.9792 11.9981H16.7187V12.9863C16.4529 13.0557 16.135 13.1193 15.7651 13.1771C15.4068 13.2233 15.0253 13.258 14.6207 13.2811C14.2277 13.3158 13.829 13.3331 13.4244 13.3331Z" fill="#1958B8"/>
<path d="M19.6356 13.3331C18.9537 13.3331 18.3873 13.1308 17.9365 12.7263C17.4972 12.3101 17.2776 11.738 17.2776 11.0098V10.2815C17.2776 9.56488 17.5203 8.98115 18.0058 8.53034C18.5029 8.06798 19.2484 7.8368 20.2425 7.8368H23.138V6.86585C23.138 6.50752 23.0745 6.20698 22.9473 5.96424C22.8317 5.70994 22.6121 5.51922 22.2884 5.39207C21.9648 5.26492 21.4851 5.20135 20.8493 5.20135H18.0058V4.17837C18.4219 4.0859 18.9074 4.00499 19.4623 3.93563C20.0287 3.86628 20.6875 3.82582 21.4389 3.81426C22.2018 3.81426 22.8375 3.91252 23.3461 4.10902C23.8663 4.29396 24.2535 4.60606 24.5078 5.0453C24.7621 5.47298 24.8892 6.04516 24.8892 6.76181V13.2291H23.5195L23.2247 12.2061C23.1554 12.2524 23.0109 12.339 22.7913 12.4662C22.5716 12.5818 22.2884 12.7089 21.9417 12.8476C21.6065 12.9863 21.2366 13.1019 20.832 13.1944C20.439 13.2869 20.0402 13.3331 19.6356 13.3331ZM20.4332 12.0674C20.6066 12.079 20.8089 12.0616 21.0401 12.0154C21.2828 11.9692 21.5198 11.9171 21.7509 11.8593C21.9937 11.79 22.2133 11.7206 22.4098 11.6513C22.6179 11.5819 22.7855 11.5241 22.9126 11.4779C23.0513 11.4201 23.1265 11.3854 23.138 11.3739V8.70373L20.7106 8.80776C20.1096 8.84244 19.6761 8.99271 19.4102 9.25856C19.1559 9.52442 19.0288 9.87119 19.0288 10.2989V10.715C19.0288 11.0502 19.0982 11.3218 19.2369 11.5299C19.3756 11.7264 19.549 11.8651 19.757 11.946C19.9766 12.0269 20.202 12.0674 20.4332 12.0674Z" fill="#1958B8"/>
<path d="M26.552 13.2291V3.95297H27.939L28.2858 4.95861C28.7019 4.65807 29.1932 4.39222 29.7596 4.16104C30.3375 3.9183 30.9328 3.79693 31.5455 3.79693C32.239 3.79693 32.7938 3.94719 33.21 4.24773C33.6376 4.5367 33.944 4.92393 34.1289 5.40941C34.3138 5.89489 34.4063 6.42082 34.4063 6.98722V13.2291H32.6725V7.19528C32.6725 6.82539 32.5973 6.50752 32.4471 6.24166C32.3084 5.96424 32.1119 5.7504 31.8576 5.60013C31.6033 5.44987 31.2912 5.37473 30.9213 5.37473C30.5745 5.37473 30.2509 5.40941 29.9503 5.47876C29.6613 5.54812 29.3839 5.64637 29.1181 5.77352C28.8522 5.88911 28.5748 6.0336 28.2858 6.20698V13.2291H26.552Z" fill="#1958B8"/>
<path d="M39.1024 13.3331C38.351 13.3331 37.7268 13.1713 37.2298 12.8476C36.7443 12.524 36.3802 12.0212 36.1375 11.3392C35.8947 10.6456 35.7734 9.7556 35.7734 8.66905C35.7734 7.52471 35.8832 6.59999 36.1028 5.89489C36.334 5.17823 36.7039 4.65807 37.2125 4.33442C37.7211 3.99921 38.4088 3.8316 39.2757 3.8316C39.7612 3.8316 40.2409 3.88362 40.7148 3.98765C41.2003 4.09168 41.6222 4.20727 41.9806 4.33442V-0.000213623H43.7144V13.2291H42.2926L41.9806 12.3101C41.7956 12.472 41.5413 12.6338 41.2177 12.7956C40.894 12.9459 40.5472 13.073 40.1773 13.1771C39.8075 13.2811 39.4491 13.3331 39.1024 13.3331ZM39.6572 11.9114C40.1311 11.9114 40.5588 11.8362 40.9402 11.686C41.3332 11.5357 41.68 11.3796 41.9806 11.2178V5.58279C41.6222 5.47876 41.2697 5.38629 40.9229 5.30538C40.5877 5.21291 40.212 5.16667 39.7959 5.16667C39.2526 5.16667 38.8134 5.26492 38.4782 5.46142C38.143 5.65793 37.9002 6.0047 37.7499 6.50174C37.5997 6.99877 37.5245 7.69232 37.5245 8.58236C37.5245 9.40305 37.5939 10.0619 37.7326 10.559C37.8713 11.0444 38.0967 11.3912 38.4088 11.5993C38.7325 11.8073 39.1486 11.9114 39.6572 11.9114Z" fill="#1958B8"/>
<path d="M45.6416 2.3925C45.4335 2.3925 45.3295 2.29425 45.3295 2.09775V0.641312C45.3295 0.43325 45.4335 0.329218 45.6416 0.329218H46.9246C47.0171 0.329218 47.0864 0.358116 47.1327 0.415911C47.1789 0.473706 47.202 0.54884 47.202 0.641312V2.09775C47.202 2.29425 47.1096 2.3925 46.9246 2.3925H45.6416ZM45.3988 13.2291V3.95297H47.1327V13.2291H45.3988Z" fill="#1958B8"/>
<path d="M51.5927 13.3331C50.7258 13.3331 50.0496 13.1019 49.5641 12.6396C49.0902 12.1657 48.8532 11.449 48.8532 10.4896V3.95297H50.5871V10.0215C50.5871 10.715 50.7432 11.1831 51.0552 11.4259C51.3789 11.6686 51.8297 11.79 52.4076 11.79C52.87 11.79 53.3093 11.7206 53.7254 11.5819C54.1531 11.4317 54.5692 11.2294 54.9737 10.9751V3.95297H56.7076V13.2291H55.3205L54.9737 12.2408C54.5229 12.5298 54.0028 12.7841 53.4133 13.0037C52.8353 13.2233 52.2285 13.3331 51.5927 13.3331Z" fill="#1958B8"/>
<path d="M58.4041 13.2291V3.95297H59.7912L60.1379 4.95861C60.5887 4.64651 61.0858 4.37488 61.629 4.1437C62.1723 3.91252 62.7965 3.79693 63.5016 3.79693C64.0796 3.79693 64.5708 3.92407 64.9754 4.17837C65.3799 4.43267 65.6863 4.75632 65.8943 5.14933C66.1717 4.94127 66.5069 4.73321 66.8999 4.52514C67.293 4.31708 67.7149 4.1437 68.1657 4.00499C68.6165 3.86628 69.0499 3.79693 69.4661 3.79693C70.1596 3.79693 70.7202 3.94141 71.1479 4.23039C71.5871 4.5078 71.8992 4.89503 72.0842 5.39207C72.2807 5.87755 72.3789 6.43238 72.3789 7.05657V13.2291H70.6451V7.19528C70.6451 6.82539 70.5699 6.50752 70.4197 6.24166C70.281 5.96424 70.0787 5.7504 69.8128 5.60013C69.5585 5.44987 69.2464 5.37473 68.8765 5.37473C68.4142 5.37473 67.9403 5.4672 67.4548 5.65215C66.9693 5.82553 66.5243 6.03938 66.1197 6.29367C66.166 6.44394 66.2006 6.59999 66.2237 6.76181C66.2469 6.91208 66.2584 7.06235 66.2584 7.21262V13.2291H64.5246V7.19528C64.5246 6.82539 64.4494 6.50752 64.2992 6.24166C64.1605 5.96424 63.964 5.7504 63.7097 5.60013C63.4554 5.44987 63.1433 5.37473 62.7734 5.37473C62.4266 5.37473 62.103 5.40941 61.8024 5.47876C61.5135 5.54812 61.236 5.64637 60.9702 5.77352C60.7043 5.88911 60.4269 6.0336 60.1379 6.20698V13.2291H58.4041Z" fill="#1958B8"/>
</svg>
